<?xml version="1.0" standalone="no"?><!DOCTYPE svg PUBLIC "-//W3C//DTD SVG 1.1//EN" "http://www.w3.org/Graphics/SVG/1.1/DTD/svg11.dtd"><svg t="1505974636823" class="icon" style="" viewBox="0 0 1024 1024" version="1.1" xmlns="http://www.w3.org/2000/svg" p-id="14187" xmlns:xlink="http://www.w3.org/1999/xlink" width="128" height="128"><defs><style type="text/css"></style></defs><path d="M816.872727 256c-2.327273 0-4.654545-2.327273-6.981818-2.327273L535.272727 176.872727c-2.327273 0-2.327273 0-4.654545-2.327272-13.963636-4.654545-27.927273-4.654545-39.563637 0-2.327273 0-2.327273 0-4.654545 2.327272L209.454545 249.018182c-2.327273 0-4.654545 2.327273-6.981818 2.327273-39.563636 20.945455-37.236364 32.581818 4.654546 53.527272H209.454545l283.927273 109.381818c13.963636 6.981818 30.254545 6.981818 44.218182 0L814.545455 309.527273h2.327272c41.890909-20.945455 41.890909-34.909091 0-53.527273zM512 295.563636c-25.6 0-46.545455-11.636364-46.545455-25.6 0-13.963636 20.945455-25.6 46.545455-25.6s46.545455 11.636364 46.545455 25.6c0 16.290909-20.945455 25.6-46.545455 25.6z" fill="#FFCC00" p-id="14188"></path><path d="M477.090909 435.2L207.127273 332.8C186.181818 325.818182 162.909091 339.781818 162.909091 360.727273v358.4c0 18.618182 13.963636 32.581818 30.254545 32.581818 2.327273 0 4.654545 0 6.981819 2.327273l251.345454 95.418181c20.945455 9.309091 44.218182-6.981818 44.218182-30.254545V465.454545c2.327273-13.963636-6.981818-25.6-18.618182-30.254545z m-230.4 211.781818c-16.290909 0-30.254545-13.963636-30.254545-32.581818 0-18.618182 13.963636-32.581818 30.254545-32.581818s30.254545 13.963636 30.254546 32.581818c-2.327273 16.290909-13.963636 32.581818-30.254546 32.581818z m46.545455-128c0-18.618182 13.963636-32.581818 30.254545-32.581818s30.254545 13.963636 30.254546 32.581818c0 18.618182-13.963636 32.581818-30.254546 32.581818s-30.254545-13.963636-30.254545-32.581818z m74.472727 174.545455c-16.290909 0-30.254545-13.963636-30.254546-32.581818s13.963636-32.581818 30.254546-32.581819c16.290909 0 30.254545 13.963636 30.254545 32.581819s-13.963636 32.581818-30.254545 32.581818z" fill="#5CAEFB" p-id="14189"></path><path d="M861.090909 360.727273c0-20.945455-23.272727-34.909091-44.218182-27.927273l-267.636363 102.4c-11.636364 4.654545-20.945455 16.290909-20.945455 30.254545v353.745455c0 23.272727 23.272727 39.563636 44.218182 30.254545l251.345454-95.418181c2.327273 0 4.654545-2.327273 6.981819-2.327273 16.290909-2.327273 30.254545-16.290909 30.254545-32.581818V360.727273c0 2.327273 0 0 0 0z m-197.818182 332.8c-16.290909 0-30.254545-13.963636-30.254545-32.581818s13.963636-32.581818 30.254545-32.581819 30.254545 13.963636 30.254546 32.581819-13.963636 32.581818-30.254546 32.581818z m100.072728-130.327273c-16.290909 0-30.254545-13.963636-30.254546-32.581818 0-18.618182 13.963636-32.581818 30.254546-32.581818 16.290909 0 30.254545 13.963636 30.254545 32.581818 0 18.618182-13.963636 32.581818-30.254545 32.581818z" fill="#FB6969" p-id="14190"></path></svg>